<svg width="40" height="40" viewBox="0 0 40 40" fill="none" xmlns="http://www.w3.org/2000/svg">
<g clip-path="url(#clip0_2_1094)">
<path d="M19.2119 39.4337L6.87506 24.5243C6.87506 24.5243 5.00466 22.7555 7.03342 22.7555C9.06965 22.7555 13.9847 22.7555 13.9847 22.7555C13.9847 22.7555 13.9847 21.5589 13.9847 19.7303C13.9847 14.4806 13.9847 4.94036 13.9847 1.05913C13.9847 1.05913 13.7098 -6.48499e-05 15.3068 -6.48499e-05C16.9083 -6.48499e-05 23.9462 -6.48499e-05 25.0921 -6.48499e-05C26.2349 -6.48499e-05 26.211 0.884342 26.211 0.884342C26.211 4.66548 26.211 14.5284 26.211 19.5988C26.211 21.2451 26.211 22.3118 26.211 22.3118C26.211 22.3118 30.1505 22.3118 32.6304 22.3118C35.1014 22.3118 33.24 24.1643 33.24 24.1643C33.24 24.1643 22.7451 38.0952 21.287 39.5592C20.2203 40.6184 19.2119 39.4337 19.2119 39.4337Z" fill="white"/>
</g>
<defs>
<clipPath id="clip0_2_1094">
<rect width="40" height="40" fill="white" transform="translate(40 40) rotate(-180)"/>
</clipPath>
</defs>
</svg>
