<svg width="250" height="157" viewBox="0 0 250 157" fill="none" xmlns="http://www.w3.org/2000/svg">
<g clip-path="url(#clip0_9_972)">
<path d="M180.336 51.5818V29.5349L187.641 30.3943V13.8709L99.4453 0.37085L0 19.3005V38.6208L9.21875 37.3396V91.0271H35.9609V141.136L162.914 156.519L185.375 153.801V89.488L225.273 89.613V148.957L243.813 146.715V68.2927L250 68.5974V56.8474L180.336 51.5818ZM171.359 37.1677V56.5037L144.789 56.9959V34.4646L171.359 37.1677ZM23.0312 40.324L83.3359 32.6755V75.7224L23.0312 77.7224V40.324V40.324ZM47.8047 129.73V91.0193H72.6641V131.988L47.8047 129.73ZM78.9844 132.418V91.0037H99.4375V90.9255H107.742V135.027L78.9844 132.418ZM113.805 135.832V90.9412L147.297 90.949V138.894L113.805 135.832Z" fill="white"/>
</g>
<defs>
<clipPath id="clip0_9_972">
<rect width="250" height="156.883" fill="white"/>
</clipPath>
</defs>
</svg>
