<svg width="30" height="30" viewBox="0 0 30 30" fill="none" xmlns="http://www.w3.org/2000/svg">
<path d="M28.7145 11.0763C28.0106 11.0763 27.4352 11.6516 27.4352 12.3556V13.8247H24.6929V13.7635C24.6929 11.8475 23.1626 10.3172 21.2467 10.3172H16.2701V6.9322H17.9963C18.7003 6.9322 19.2757 6.35681 19.2757 5.65287C19.2757 4.94893 18.7003 4.37354 17.9963 4.37354H11.9976C11.2936 4.37354 10.7182 4.94893 10.7182 5.65287C10.7182 6.35681 11.2936 6.9322 11.9976 6.9322H13.7176V10.3172H8.74107C6.82514 10.3172 5.29484 11.8475 5.29484 13.7635V13.8247H2.55254V12.3556C2.55254 11.6516 1.97715 11.0763 1.27321 11.0763C0.569272 11.0763 0 11.6516 0 12.3495V23.5819C0 24.2858 0.575393 24.8612 1.27933 24.8612C1.91594 24.8612 2.49133 24.2858 2.55866 23.5819V22.1801H5.30096C5.30096 24.0961 6.83126 25.6264 8.74719 25.6264H21.2528C23.1687 25.6264 24.699 24.0961 24.699 22.1801L27.4413 22.174V23.5819C27.4413 24.2858 28.0167 24.8612 28.7207 24.8612C29.4246 24.8612 30 24.2858 30 23.5819V12.3495C29.9939 11.6516 29.4185 11.0763 28.7145 11.0763ZM5.23363 19.5602H2.55254V16.3711H5.23363V19.5602ZM22.2077 22.1801C22.2077 22.6882 21.7609 23.135 21.2528 23.135H8.74107C8.23301 23.135 7.78617 22.6882 7.78617 22.1801V13.7573C7.78617 13.2493 8.23301 12.8024 8.74107 12.8024H21.2467C21.7547 12.8024 22.2016 13.2493 22.2016 13.7573V22.1801H22.2077ZM24.699 19.5602V16.3711H27.4413V19.5602H24.699Z" fill="white"/>
</svg>
