<svg width="129" height="103" viewBox="0 0 129 103" fill="none" xmlns="http://www.w3.org/2000/svg">
<path d="M29.025 96.5625C12.9947 96.5625 0 83.5869 0 67.5938C0 54.9602 8.09676 44.2176 19.3903 40.2545C19.3641 39.7113 19.35 39.1682 19.35 38.625C19.35 20.8414 33.7819 6.4375 51.6 6.4375C63.5527 6.4375 73.9734 12.9253 79.5567 22.5715C82.6205 20.3385 86.3292 19.3125 90.3 19.3125C100.983 19.3125 109.65 27.7818 109.65 38.625C109.65 41.0793 109.186 43.4129 108.36 45.5855C120.131 47.9594 129 58.36 129 70.8125C129 85.0354 117.45 96.5625 103.2 96.5625H29.025ZM44.9484 52.9082C43.0739 54.7992 43.0739 57.857 44.9484 59.567C46.8431 61.6189 49.9069 61.6189 51.6202 59.567L59.6625 51.8822V78.8594C59.6625 81.535 61.8192 83.6875 64.5 83.6875C67.1808 83.6875 69.3375 81.535 69.3375 78.8594V51.8822L77.1984 59.567C79.0931 61.6189 82.1569 61.6189 83.8702 59.567C85.9261 57.857 85.9261 54.7992 83.8702 52.9082L67.7452 36.8145C66.0319 34.9436 62.9681 34.9436 61.0734 36.8145L44.9484 52.9082Z" fill="white"/>
</svg>
