<svg width="30" height="30" viewBox="0 0 30 30" fill="none" xmlns="http://www.w3.org/2000/svg">
<g clip-path="url(#clip0_9_1131)">
<path d="M24.367 21.334L27.0629 12.5957H2.93713L5.63297 21.334C5.7377 21.6733 6.05138 21.905 6.40655 21.905H6.6919C7.3135 20.9943 8.39681 20.2986 9.62776 20.2986C10.8587 20.2986 11.942 20.9943 12.5636 21.905H17.5111C18.1327 20.9943 19.216 20.2986 20.4469 20.2986C21.6779 20.2986 22.7612 20.9943 23.3828 21.905H23.5938C23.9486 21.905 24.2623 21.6732 24.367 21.334Z" fill="white"/>
<path d="M27.5623 10.9767L27.8008 10.2262C27.8766 9.98074 27.8312 9.70237 27.6785 9.49565C27.5259 9.28872 27.2842 9.15535 27.0272 9.15535H25.969C26.0286 8.85179 26.0606 8.55683 26.0606 8.23374C26.0606 5.52343 23.8634 3.33747 21.153 3.33747C20.9626 3.33747 20.7751 3.35528 20.5902 3.37643C20.4917 1.49363 18.9338 0 17.0263 0C16.3135 0 15.6502 0.211381 15.0929 0.571305C14.5357 0.211381 13.8723 0.00222613 13.1596 0.00222613C11.2521 0.00222613 9.69426 1.49899 9.5955 3.38179C9.41073 3.36064 9.22313 3.3488 9.03269 3.3488C6.32238 3.3488 4.12509 5.52333 4.12509 8.23364C4.12509 8.55673 4.15717 8.85179 4.21677 9.15535H2.97267C2.71565 9.15535 2.47391 9.30015 2.32132 9.50708C2.16863 9.71381 2.1233 9.96941 2.19909 10.2149L2.43769 10.9767H27.5623Z" fill="white"/>
<path d="M20.5637 25.7C21.5423 25.6393 22.318 24.8285 22.318 23.8345C22.318 22.8011 21.4802 21.9634 20.4468 21.9634C19.4133 21.9634 18.5755 22.8011 18.5755 23.8345C18.5755 24.4466 18.8707 24.9883 19.3249 25.3298C18.6306 25.1558 17.8969 25.0248 17.1369 24.9398C16.4602 24.8641 15.7638 24.8237 15.0558 24.8237C14.3343 24.8237 13.625 24.8651 12.9365 24.9433C12.1716 25.03 11.4338 25.1632 10.7363 25.3397C11.1981 24.999 11.4991 24.4525 11.4991 23.8345C11.4991 22.8011 10.6613 21.9634 9.62779 21.9634C8.59436 21.9634 7.75653 22.8011 7.75653 23.8345C7.75653 24.8365 8.54468 25.6522 9.53429 25.7011C9.11194 25.85 8.70951 26.0155 8.3332 26.1988C8.0519 26.3359 7.78901 26.4582 7.54393 26.61C6.05162 27.5344 5.2406 28.7859 5.2406 30.0001H24.871C24.871 28.7859 24.0516 27.5249 22.5445 26.5994C22.306 26.453 22.0509 26.3242 21.7785 26.1914C21.3981 26.0062 20.9911 25.8505 20.5637 25.7Z" fill="white"/>
</g>
<defs>
<clipPath id="clip0_9_1131">
<rect width="30" height="30" fill="white"/>
</clipPath>
</defs>
</svg>
