<svg width="421" height="374" viewBox="0 0 421 374" fill="none" xmlns="http://www.w3.org/2000/svg">
<path d="M27.427 178.2L21.931 195H17.755L14.059 183.624L10.243 195H6.09097L0.570969 178.2H4.60297L8.39497 190.008L12.355 178.2H15.955L19.795 190.104L23.707 178.2H27.427Z" fill="white"/>
<path d="M419.449 192.88V196H406.441V179.2H419.137V182.32H410.305V185.968H418.105V188.992H410.305V192.88H419.449Z" fill="white"/>
<path d="M223.709 357.2V374H220.517L212.141 363.8V374H208.301V357.2H211.517L219.869 367.4V357.2H223.709Z" fill="white"/>
<path d="M215.86 19.288C214.532 19.288 213.244 19.112 211.996 18.76C210.764 18.392 209.772 17.92 209.02 17.344L210.34 14.416C211.06 14.944 211.916 15.368 212.908 15.688C213.9 16.008 214.892 16.168 215.884 16.168C216.988 16.168 217.804 16.008 218.332 15.688C218.86 15.352 219.124 14.912 219.124 14.368C219.124 13.968 218.964 13.64 218.644 13.384C218.34 13.112 217.94 12.896 217.444 12.736C216.964 12.576 216.308 12.4 215.476 12.208C214.196 11.904 213.148 11.6 212.332 11.296C211.516 10.992 210.812 10.504 210.22 9.832C209.644 9.16 209.356 8.264 209.356 7.144C209.356 6.168 209.62 5.288 210.148 4.504C210.676 3.704 211.468 3.072 212.524 2.608C213.596 2.144 214.9 1.912 216.436 1.912C217.508 1.912 218.556 2.04 219.58 2.296C220.604 2.552 221.5 2.92 222.268 3.4L221.068 6.352C219.516 5.472 217.964 5.032 216.412 5.032C215.324 5.032 214.516 5.208 213.988 5.56C213.476 5.912 213.22 6.376 213.22 6.952C213.22 7.528 213.516 7.96 214.108 8.248C214.716 8.52 215.636 8.792 216.868 9.064C218.148 9.368 219.196 9.672 220.012 9.976C220.828 10.28 221.524 10.76 222.1 11.416C222.692 12.072 222.988 12.96 222.988 14.08C222.988 15.04 222.716 15.92 222.172 16.72C221.644 17.504 220.844 18.128 219.772 18.592C218.7 19.056 217.396 19.288 215.86 19.288Z" fill="white"/>
<path d="M360.57 66.16C359.517 66.16 358.497 66 357.51 65.68C356.537 65.3467 355.77 64.92 355.21 64.4L355.95 62.84C356.483 63.32 357.163 63.7133 357.99 64.02C358.83 64.3133 359.69 64.46 360.57 64.46C361.73 64.46 362.597 64.2667 363.17 63.88C363.743 63.48 364.03 62.9533 364.03 62.3C364.03 61.82 363.87 61.4333 363.55 61.14C363.243 60.8333 362.857 60.6 362.39 60.44C361.937 60.28 361.29 60.1 360.45 59.9C359.397 59.6467 358.543 59.3933 357.89 59.14C357.25 58.8867 356.697 58.5 356.23 57.98C355.777 57.4467 355.55 56.7333 355.55 55.84C355.55 55.0933 355.743 54.42 356.13 53.82C356.53 53.22 357.13 52.74 357.93 52.38C358.73 52.02 359.723 51.84 360.91 51.84C361.737 51.84 362.55 51.9467 363.35 52.16C364.15 52.3733 364.837 52.68 365.41 53.08L364.75 54.68C364.163 54.3067 363.537 54.0267 362.87 53.84C362.203 53.64 361.55 53.54 360.91 53.54C359.777 53.54 358.923 53.7467 358.35 54.16C357.79 54.5733 357.51 55.1067 357.51 55.76C357.51 56.24 357.67 56.6333 357.99 56.94C358.31 57.2333 358.703 57.4667 359.17 57.64C359.65 57.8 360.297 57.9733 361.11 58.16C362.163 58.4133 363.01 58.6667 363.65 58.92C364.29 59.1733 364.837 59.56 365.29 60.08C365.757 60.6 365.99 61.3 365.99 62.18C365.99 62.9133 365.79 63.5867 365.39 64.2C364.99 64.8 364.383 65.28 363.57 65.64C362.757 65.9867 361.757 66.16 360.57 66.16ZM381.472 64.26V66H371.312V52H381.192V53.74H373.312V58.04H380.332V59.74H373.312V64.26H381.472Z" fill="white"/>
<path d="M41.5093 63.16C40.456 63.16 39.436 63 38.4493 62.68C37.476 62.3467 36.7093 61.92 36.1493 61.4L36.8893 59.84C37.4226 60.32 38.1026 60.7133 38.9293 61.02C39.7693 61.3133 40.6293 61.46 41.5093 61.46C42.6693 61.46 43.536 61.2667 44.1093 60.88C44.6826 60.48 44.9693 59.9533 44.9693 59.3C44.9693 58.82 44.8093 58.4333 44.4893 58.14C44.1826 57.8333 43.796 57.6 43.3293 57.44C42.876 57.28 42.2293 57.1 41.3893 56.9C40.336 56.6467 39.4826 56.3933 38.8293 56.14C38.1893 55.8867 37.636 55.5 37.1693 54.98C36.716 54.4467 36.4893 53.7333 36.4893 52.84C36.4893 52.0933 36.6826 51.42 37.0693 50.82C37.4693 50.22 38.0693 49.74 38.8693 49.38C39.6693 49.02 40.6626 48.84 41.8493 48.84C42.676 48.84 43.4893 48.9467 44.2893 49.16C45.0893 49.3733 45.776 49.68 46.3493 50.08L45.6893 51.68C45.1026 51.3067 44.476 51.0267 43.8093 50.84C43.1426 50.64 42.4893 50.54 41.8493 50.54C40.716 50.54 39.8626 50.7467 39.2893 51.16C38.7293 51.5733 38.4493 52.1067 38.4493 52.76C38.4493 53.24 38.6093 53.6333 38.9293 53.94C39.2493 54.2333 39.6426 54.4667 40.1093 54.64C40.5893 54.8 41.236 54.9733 42.0493 55.16C43.1026 55.4133 43.9493 55.6667 44.5893 55.92C45.2293 56.1733 45.776 56.56 46.2293 57.08C46.696 57.6 46.9293 58.3 46.9293 59.18C46.9293 59.9133 46.7293 60.5867 46.3293 61.2C45.9293 61.8 45.3226 62.28 44.5093 62.64C43.696 62.9867 42.696 63.16 41.5093 63.16ZM72.0312 49L67.3512 63H65.2512L61.4312 51.82L57.6112 63H55.4712L50.7912 49H52.8512L56.6312 60.38L60.5712 49H62.4112L66.2712 60.44L70.1312 49H72.0312Z" fill="white"/>
<path d="M49.6334 307V321H47.9934L39.5934 310.56V321H37.5934V307H39.2334L47.6334 317.44V307H49.6334ZM75.8671 307L71.1871 321H69.0871L65.2671 309.82L61.4471 321H59.3071L54.6271 307H56.6871L60.4671 318.38L64.4071 307H66.2471L70.1071 318.44L73.9671 307H75.8671Z" fill="white"/>
<path d="M361.626 307V321H359.986L351.586 310.56V321H349.586V307H351.226L359.626 317.44V307H361.626ZM378.376 319.26V321H368.216V307H378.096V308.74H370.216V313.04H377.236V314.74H370.216V319.26H378.376Z" fill="white"/>
</svg>
