<svg width="30" height="30" viewBox="0 0 30 30" fill="none" xmlns="http://www.w3.org/2000/svg">
<g clip-path="url(#clip0_9_706)">
<path d="M10.6337 0.70416C10.4363 0.275107 10.0074 0.000101844 9.53517 2.82935e-08C9.06285 -0.000101788 8.63359 0.274598 8.43627 0.703651C5.39452 7.31915 0 15.834 0 20.4651C0 25.7312 4.26884 30 9.53487 30C14.8009 30 19.0698 25.7311 19.0698 20.4651C19.0699 15.8343 13.6755 7.31966 10.6337 0.70416ZM9.12761 26.9625C5.60467 26.9625 2.73865 24.0965 2.73865 20.5736C2.73865 19.8707 3.30851 19.3009 4.01135 19.3009C4.71418 19.3009 5.28405 19.8707 5.28405 20.5736C5.28405 22.6929 7.0083 24.4171 9.12761 24.4171C9.83044 24.4171 10.4003 24.987 10.4003 25.6898C10.4003 26.3928 9.83044 26.9625 9.12761 26.9625Z" fill="#32DAE4"/>
<g clip-path="url(#clip1_9_706)">
<path d="M28.7162 11.3624L27.0755 10.4151L28.4974 9.57672C28.7596 9.42208 28.8469 9.08413 28.6922 8.82188C28.5375 8.55963 28.1997 8.47254 27.9373 8.62703L25.9788 9.78193L24.8261 9.11647V7.03738L25.9782 6.37221L27.9374 7.52703C28.0253 7.57885 28.1216 7.6034 28.2168 7.6034C28.4056 7.6034 28.5894 7.50638 28.6922 7.33197C28.8469 7.06972 28.7595 6.73177 28.4973 6.57712L27.0751 5.73886L28.7162 4.79137C28.9798 4.63916 29.0702 4.30201 28.9179 4.03837C28.7658 3.77473 28.4285 3.6844 28.1649 3.83661L26.5241 4.78395L26.5093 3.13307C26.5066 2.82864 26.257 2.58219 25.9531 2.58682C25.6486 2.58954 25.4041 2.83856 25.4068 3.143L25.4272 5.41715L24.2747 6.08254L22.4743 5.04296V3.71255L24.4541 2.59359C24.719 2.44379 24.8125 2.10753 24.6627 1.84242C24.5129 1.57738 24.1765 1.48389 23.9116 1.63375L22.4743 2.44614V0.551248C22.4743 0.246812 22.2275 0 21.923 0C21.6185 0 21.3718 0.246812 21.3718 0.551248V2.44614L19.9344 1.63383C19.6693 1.48389 19.333 1.57745 19.1833 1.84249C19.0335 2.10753 19.1269 2.44387 19.3919 2.59366L21.3718 3.71262V5.04318L19.5714 6.08262L18.4188 5.41715L18.4392 3.14307C18.4419 2.83863 18.1974 2.58962 17.8929 2.5869C17.8911 2.5869 17.8895 2.5869 17.8879 2.5869C17.5858 2.5869 17.3394 2.8304 17.3367 3.13322L17.3219 4.78395L15.6813 3.83669C15.4174 3.6844 15.0804 3.7748 14.9283 4.03844C14.7761 4.30209 14.8664 4.63923 15.13 4.79145L16.7711 5.73893L15.3487 6.5772C15.0864 6.73177 14.9991 7.06972 15.1537 7.33204C15.2565 7.50645 15.4403 7.60347 15.6291 7.60347C15.7242 7.60347 15.8206 7.57885 15.9085 7.52711L17.8679 6.37228L19.0201 7.03753V9.11654L17.8673 9.78215L15.9085 8.62711C15.6464 8.47246 15.3085 8.55971 15.1537 8.82195C14.9991 9.0842 15.0864 9.42215 15.3486 9.5768L16.7706 10.4152L15.13 11.3624C14.8664 11.5146 14.7761 11.8518 14.9283 12.1154C15.0304 12.2922 15.2157 12.3911 15.4062 12.3911C15.4997 12.3911 15.5946 12.3672 15.6813 12.3172L17.3219 11.37L17.3367 13.0208C17.3394 13.3236 17.5857 13.5672 17.8879 13.5672C17.8895 13.5672 17.8913 13.5672 17.8929 13.5671C18.1973 13.5644 18.4419 13.3154 18.4392 13.0109L18.4187 10.7366L19.5713 10.0712L21.3718 11.1107V12.4414L19.3919 13.5604C19.127 13.7102 19.0335 14.0465 19.1833 14.3116C19.2846 14.4909 19.4714 14.5917 19.6637 14.5917C19.7555 14.5917 19.8487 14.5687 19.9344 14.5202L21.3718 13.7079V15.6027C21.3718 15.9071 21.6185 16.1539 21.923 16.1539C22.2275 16.1539 22.4743 15.9071 22.4743 15.6027V13.7079L23.9116 14.5202C23.9973 14.5687 24.0905 14.5917 24.1824 14.5917C24.3747 14.5917 24.5615 14.4909 24.6628 14.3116C24.8126 14.0465 24.7192 13.7102 24.4541 13.5604L22.4744 12.4414V11.1108L24.2749 10.0712L25.4274 10.7365L25.4063 13.0107C25.4035 13.3151 25.6481 13.5642 25.9525 13.567C25.9542 13.5671 25.956 13.5671 25.9577 13.5671C26.2597 13.5671 26.506 13.3236 26.5088 13.0209L26.5241 11.3697L28.165 12.3171C28.2519 12.3672 28.3466 12.391 28.4401 12.391C28.6306 12.391 28.8159 12.2921 28.918 12.1153C29.0702 11.8518 28.9797 11.5146 28.7162 11.3624ZM20.1226 7.03745L21.9232 5.9978L23.7236 7.03745V9.11639L21.9232 10.156L20.1226 9.11639V7.03745Z" fill="#32DAE4"/>
</g>
</g>
<defs>
<clipPath id="clip0_9_706">
<rect width="30" height="30" fill="white"/>
</clipPath>
<clipPath id="clip1_9_706">
<rect width="16.1538" height="16.1538" fill="white" transform="translate(13.8462)"/>
</clipPath>
</defs>
</svg>
