<svg width="30" height="30" viewBox="0 0 30 30" fill="none" xmlns="http://www.w3.org/2000/svg">
<g clip-path="url(#clip0_9_725)">
<path d="M11.6337 0.70416C11.4363 0.275107 11.0074 0.000101844 10.5352 2.82935e-08C10.0628 -0.000101788 9.63359 0.274598 9.43627 0.703651C6.39452 7.31915 1 15.834 1 20.4651C1 25.7312 5.26884 30 10.5349 30C15.8009 30 20.0698 25.7311 20.0698 20.4651C20.0699 15.8343 14.6755 7.31966 11.6337 0.70416ZM10.1276 26.9625C6.60467 26.9625 3.73865 24.0965 3.73865 20.5736C3.73865 19.8707 4.30851 19.3009 5.01135 19.3009C5.71418 19.3009 6.28405 19.8707 6.28405 20.5736C6.28405 22.6929 8.0083 24.4171 10.1276 24.4171C10.8304 24.4171 11.4003 24.987 11.4003 25.6898C11.4003 26.3928 10.8304 26.9625 10.1276 26.9625Z" fill="#FF6161"/>
<path d="M19.455 15.1871C18.6935 14.6177 18.3185 14.1136 18.1451 13.6945C17.9781 13.2908 17.9639 12.8846 18.0781 12.4302C18.1974 11.9551 18.4556 11.4363 18.8309 10.854C19.2066 10.271 19.6573 9.68648 20.1375 9.05229C20.6046 8.43537 21.0985 7.77246 21.4943 7.09546C21.8895 6.41934 22.225 5.66689 22.3273 4.85931C22.4332 4.02356 22.2828 3.17354 21.7788 2.35032C21.2889 1.55001 20.4966 0.825928 19.4006 0.150653L18.3513 1.85345C19.286 2.42936 19.8018 2.95172 20.0731 3.39478C20.3303 3.81493 20.3942 4.20521 20.3432 4.60836C20.2885 5.03966 20.096 5.5247 19.7677 6.08633C19.4399 6.64708 19.0148 7.22218 18.5431 7.84519C18.0844 8.45094 17.5767 9.10832 17.1498 9.77078C16.7224 10.4339 16.334 11.1642 16.1383 11.9434C15.9374 12.7433 15.94 13.5966 16.297 14.4595C16.6477 15.3069 17.304 16.0762 18.2571 16.7889L19.455 15.1871Z" fill="#FF6161"/>
<path d="M23.4369 15.1915C22.6755 14.6221 22.3004 14.118 22.127 13.6989C21.96 13.2952 21.9459 12.889 22.06 12.4346C22.1793 11.9595 22.4375 11.4407 22.8128 10.8584C23.1885 10.2754 23.6393 9.69087 24.1194 9.05668C24.5865 8.43976 25.0804 7.77685 25.4762 7.09985C25.8714 6.42373 26.207 5.67128 26.3092 4.8637C26.4151 4.02796 26.2647 3.17793 25.7608 2.35471C25.2708 1.5544 24.4785 0.83032 23.3826 0.155046L22.3332 1.85784C23.2679 2.43375 23.7837 2.95612 24.055 3.39917C24.3122 3.81933 24.3761 4.2096 24.3251 4.61275C24.2705 5.04406 24.0779 5.5291 23.7496 6.09073C23.4218 6.65147 22.9967 7.22657 22.525 7.84959C22.0664 8.45533 21.5586 9.11272 21.1317 9.77518C20.7043 10.4383 20.3159 11.1686 20.1202 11.9478C19.9194 12.7477 19.9219 13.601 20.279 14.4639C20.6296 15.3113 21.286 16.0806 22.239 16.7933L23.4369 15.1915Z" fill="#FF6161"/>
<path d="M27.4188 15.1964C26.6574 14.627 26.2824 14.1229 26.109 13.7038C25.9419 13.3001 25.9278 12.8939 26.0419 12.4395C26.1612 11.9644 26.4195 11.4455 26.7947 10.8632C27.1704 10.2802 27.6212 9.69576 28.1014 9.06156C28.5685 8.44464 29.0624 7.78173 29.4581 7.10473C29.8534 6.42862 30.1889 5.67617 30.2912 4.86858C30.397 4.03284 30.2467 3.18282 29.7427 2.3596C29.2528 1.55928 28.4605 0.835203 27.3645 0.159929L26.3152 1.86272C27.2499 2.43863 27.7657 2.961 28.0369 3.40406C28.2941 3.82421 28.3581 4.21448 28.307 4.61763C28.2524 5.04894 28.0599 5.53398 27.7315 6.09561C27.4037 6.65635 26.9786 7.23145 26.5069 7.85447C26.0483 8.46021 25.5405 9.1176 25.1136 9.78006C24.6863 10.4432 24.2978 11.1735 24.1022 11.9527C23.9013 12.7525 23.9039 13.6059 24.2609 14.4687C24.6115 15.3162 25.2679 16.0855 26.221 16.7982L27.4188 15.1964Z" fill="#FF6161"/>
</g>
<defs>
<clipPath id="clip0_9_725">
<rect width="30" height="30" fill="white"/>
</clipPath>
</defs>
</svg>
