<svg width="50" height="50" viewBox="0 0 50 50" fill="none" xmlns="http://www.w3.org/2000/svg">
<g clip-path="url(#clip0_9_901)">
<path d="M26.8313 1.1736C26.5024 0.458512 25.7875 0.000169741 25.0005 4.71558e-08C24.2133 -0.000169646 23.4978 0.457663 23.169 1.17275C18.0994 12.1986 9.10852 26.39 9.10852 34.1086C9.10852 42.8853 16.2233 50 25 50C33.7767 50 40.8916 42.8851 40.8916 34.1086C40.8918 26.3906 31.9011 12.1994 26.8313 1.1736ZM24.3212 44.9375C18.4496 44.9375 13.6729 40.1608 13.6729 34.2893C13.6729 33.1179 14.6227 32.1681 15.7941 32.1681C16.9655 32.1681 17.9153 33.1179 17.9153 34.2893C17.9153 37.8214 20.789 40.6952 24.3212 40.6952C25.4926 40.6952 26.4424 41.645 26.4424 42.8164C26.4424 43.9879 25.4926 44.9375 24.3212 44.9375Z" fill="white"/>
</g>
<defs>
<clipPath id="clip0_9_901">
<rect width="50" height="50" fill="white"/>
</clipPath>
</defs>
</svg>
