<svg width="30" height="30" viewBox="0 0 30 30" fill="none" xmlns="http://www.w3.org/2000/svg">
<g clip-path="url(#clip0_9_1151)">
<path d="M18.5007 10.7028L24.8555 4.34802C24.9985 4.20499 25.0415 3.98995 24.964 3.80291C24.887 3.61587 24.704 3.49435 24.5019 3.49435H20.5011C20.2246 3.49435 20.001 3.71839 20.001 3.99445C20.001 4.2705 20.2246 4.49455 20.5011 4.49455H23.2947L17.7936 9.99565H17.0004V7.99525C17.0004 7.71919 16.7769 7.49515 16.5003 7.49515H15.5001V6.98605C16.1112 6.88403 16.6749 6.59847 17.1214 6.15138C17.6886 5.58477 18.0006 4.83112 18.0006 4.02996C18.0006 3.22829 17.6886 2.47514 17.1214 1.90803L15.3536 0.139677C15.1661 -0.0478609 14.834 -0.0478609 14.6464 0.139677L12.8786 1.90803C12.3115 2.47464 11.9994 3.22829 11.9994 4.02996C11.9994 4.83162 12.3115 5.58477 12.8786 6.15138C13.3252 6.59847 13.8888 6.88403 14.4999 6.98605V7.49515H13.4997C13.2232 7.49515 12.9996 7.71919 12.9996 7.99525V9.99565H12.2065L6.70536 4.49455H9.49892C9.77547 4.49455 9.99902 4.2705 9.99902 3.99445C9.99902 3.71839 9.77547 3.49435 9.49892 3.49435H5.49812C5.29608 3.49435 5.11304 3.61637 5.03603 3.80291C4.95851 3.98995 5.00152 4.20499 5.14455 4.34802L11.4993 10.7028V13.1328C8.92881 13.6979 6.99842 15.9899 6.99842 18.7274V29.4996C6.99842 29.7756 7.22196 29.9997 7.49852 29.9997H22.5015C22.7781 29.9997 23.0016 29.7756 23.0016 29.4996V26.499H15.5001C15.2236 26.499 15 26.2749 15 25.9989V18.9974C15 18.7214 15.2236 18.4974 15.5001 18.4974H22.9901C22.8846 15.8633 20.9967 13.6834 18.5007 13.1338V12.4961H20.001V12.9962C20.001 13.2723 20.2246 13.4963 20.5011 13.4963H22.5015C22.7781 13.4963 23.0016 13.2723 23.0016 12.9962V10.9958C23.0016 10.7198 22.7781 10.4957 22.5015 10.4957H20.5011C20.2246 10.4957 20.001 10.7198 20.001 10.9958V11.4959H18.5007V10.7028ZM14.4999 4.99465C14.4999 4.71859 14.7235 4.49455 15 4.49455C15.2766 4.49455 15.5001 4.71859 15.5001 4.99465V6.49495H14.4999V4.99465ZM12.7296 12.9962H12.4995V10.9958H13.4997H16.5003H17.5005V12.9962H17.2705H12.7296Z" fill="white"/>
<path d="M23.0016 19.4976H16.0002V25.4988H23.0016V19.4976Z" fill="white"/>
</g>
<defs>
<clipPath id="clip0_9_1151">
<rect width="30" height="30" fill="white"/>
</clipPath>
</defs>
</svg>
