<svg width="30" height="30" viewBox="0 0 30 30" fill="none" xmlns="http://www.w3.org/2000/svg">
<path d="M28.3562 12.0351H26.7659C26.4703 10.8827 26.009 9.80336 25.4073 8.81604L26.5506 7.67015C26.8592 7.3615 27.0289 6.94973 27.0289 6.51252C27.0289 6.07596 26.8579 5.66354 26.5506 5.35554L24.6451 3.45203C24.0271 2.8334 22.9472 2.83405 22.3318 3.45137L21.1402 4.63576C20.164 4.06673 19.1173 3.62822 17.9642 3.34631V1.64444C17.9642 0.741957 17.2432 0 16.3407 0H13.6469C12.7444 0 12.0345 0.741957 12.0345 1.64444V3.34566C10.882 3.62691 9.82881 4.06608 8.85128 4.63576L7.66037 3.45137C7.04305 2.83275 5.96241 2.8334 5.34314 3.45072L3.43898 5.35423C3.13358 5.65897 2.95935 6.08053 2.95935 6.51121C2.95935 6.94777 3.12836 7.35888 3.43767 7.66754L4.58095 8.81604C3.97994 9.80336 3.51793 10.8827 3.22298 12.0351H1.63204C0.728906 12.0351 0 12.7608 0 13.6613V16.3531C0 17.2562 0.728906 17.9655 1.63204 17.9655H3.22298C3.51793 19.118 3.97929 20.2038 4.57964 21.1911L3.43636 22.3416C3.12705 22.6503 2.95739 23.0633 2.95739 23.5005C2.95739 23.9377 3.12771 24.3508 3.43636 24.6595L5.34183 26.5643C5.65114 26.8729 6.0616 27.0426 6.49816 27.0426C6.93472 27.0426 7.34583 26.8723 7.65515 26.5643L8.85128 25.3792C9.82881 25.9489 10.882 26.3874 12.0345 26.67V28.3693C12.0345 29.2717 12.7444 29.9993 13.6469 29.9993H16.3407C17.2432 29.9993 17.9642 29.2717 17.9642 28.3693V26.6693C19.1173 26.3874 20.164 25.9489 21.1415 25.3792L22.3272 26.5617C22.6365 26.8716 23.0477 27.0413 23.4855 27.0413C23.9227 27.0413 24.3345 26.871 24.6432 26.563L26.5486 24.6595C26.8573 24.3515 27.0263 23.9397 27.0276 23.5031C27.0276 23.0659 26.8566 22.6555 26.5486 22.3462L25.4067 21.1911C26.007 20.2032 26.4684 19.1167 26.764 17.9655H28.3549C29.2574 17.9655 29.9993 17.2562 29.9993 16.3531V13.6613C30 12.7608 29.2587 12.0351 28.3562 12.0351ZM14.9931 20.1314C12.1363 20.1314 9.81968 17.8363 9.81968 15.0075C9.81968 12.1767 12.1363 9.88493 14.9931 9.88493C17.8507 9.88493 20.1686 12.1767 20.1686 15.0075C20.1679 17.837 17.8507 20.1314 14.9931 20.1314Z" fill="white"/>
</svg>
