<svg width="250" height="250" viewBox="0 0 250 250" fill="none" xmlns="http://www.w3.org/2000/svg">
<ellipse cx="124.746" cy="124.618" rx="13.1361" ry="13.9983" fill="white"/>
<path d="M111.403 13.5662C76.3733 30.3641 105.565 85.8907 124.539 111.554C127.458 99.889 133.734 74.6922 135.485 67.2265C137.675 57.8943 137.675 55.5612 188.03 69.5595C228.314 80.7582 204.815 44.6735 188.03 25.2314C177.083 14.3438 146.433 -3.23179 111.403 13.5662Z" fill="white" stroke="white" stroke-width="2"/>
<path d="M224.119 157.171C223.569 116.241 164.154 122.73 134.515 131.091C143.402 138.579 162.607 154.727 168.341 159.405C175.508 165.254 177.517 166.18 145.458 209.864C119.81 244.81 160.221 236.165 183.632 227.474C197.357 221.094 224.669 198.101 224.119 157.171Z" fill="white" stroke="white" stroke-width="2"/>
<path d="M62.8532 213.158C99.1211 226.645 113.779 164.945 116.575 132.409C106.926 138.736 86.1053 152.423 80.0146 156.557C72.4013 161.726 70.8952 163.419 43.3846 116.345C21.3761 78.6864 15.1371 122.103 14.7687 148.518C15.6852 164.445 26.5852 199.67 62.8532 213.158Z" fill="white" stroke="white" stroke-width="2"/>
</svg>
