<svg width="40" height="40" viewBox="0 0 40 40" fill="none" xmlns="http://www.w3.org/2000/svg">
<g clip-path="url(#clip0_2_1091)">
<path d="M25.0143 12.8274C22.2495 11.2323 17.7833 11.2323 15.0348 12.8274C12.2864 14.4224 12.3028 17.0155 15.0676 18.6106C17.8324 20.2056 22.2986 20.2056 25.0471 18.6106C27.7955 17.0073 27.7791 14.4224 25.0143 12.8274ZM23.7465 15.3386C23.5092 15.4122 23.272 15.494 23.0348 15.5676C22.8876 15.6085 22.7976 15.6167 22.7321 15.584C22.6994 15.5594 22.6667 15.5267 22.634 15.4776C22.4786 15.2241 22.2413 15.0032 21.9223 14.8233C21.8814 14.7987 21.8324 14.7742 21.7833 14.7496C21.6769 14.6924 21.5788 14.6515 21.4479 14.6188C20.9898 14.5124 20.5808 14.6842 20.6381 14.9705C20.6626 15.1177 20.7444 15.2486 20.8426 15.3877C21.0062 15.6167 21.1861 15.8457 21.3007 16.0911C21.6851 16.86 20.8508 17.6208 19.5093 17.6944C19.0266 17.7189 18.5686 17.6617 18.1432 17.5226C17.9551 17.4654 17.816 17.4654 17.677 17.5635C17.5379 17.6535 17.3825 17.7353 17.2352 17.8171C17.1044 17.8907 16.9653 17.8989 16.8344 17.8253C16.7363 17.7762 16.6463 17.7189 16.5481 17.6699C16.4827 17.629 16.4172 17.5962 16.3518 17.5553C16.2128 17.4735 16.2291 17.3917 16.36 17.3099C16.4663 17.2445 16.5727 17.1872 16.6708 17.1218C16.908 16.9827 16.908 16.9746 16.7117 16.8191C16.4663 16.6228 16.2455 16.4183 16.1064 16.1893C16.0001 16.0093 16.0246 15.9684 16.3109 15.8703C16.5236 15.8048 16.7281 15.7312 16.9408 15.6658C17.0962 15.6167 17.1862 15.6085 17.2516 15.6412C17.2925 15.6658 17.317 15.6985 17.3498 15.7558C17.4888 16.0175 17.726 16.2466 18.0123 16.4674C18.0614 16.5083 18.1187 16.541 18.1678 16.5738C18.3232 16.6637 18.5031 16.7292 18.7076 16.7782C19.2393 16.9009 19.7138 16.6883 19.6647 16.3529C19.6483 16.2384 19.5911 16.1402 19.5174 16.0339C19.3375 15.7639 19.1003 15.5104 18.9776 15.2241C18.7812 14.766 18.8712 14.3488 19.5011 14.0216C20.2209 13.6535 21.0225 13.629 21.8733 13.858C22.225 13.9562 22.2168 13.9562 22.4867 13.8008C22.5767 13.7435 22.6667 13.6944 22.7567 13.6453C22.9612 13.5308 23.0348 13.5308 23.2393 13.6453C23.3047 13.6781 23.362 13.719 23.4274 13.7517C23.861 13.9971 23.861 13.9971 23.4356 14.2507C23.133 14.4224 23.133 14.4224 23.3865 14.6269C23.5829 14.7824 23.7383 14.946 23.8528 15.1259C23.9428 15.2159 23.91 15.2895 23.7465 15.3386ZM28.7035 20.721C27.9427 21.1627 26.7076 21.1627 25.9387 20.721C25.1779 20.2793 25.1698 19.5594 25.9305 19.1177C26.6912 18.676 27.9264 18.676 28.6953 19.1177C29.4642 19.5594 29.4724 20.2793 28.7035 20.721ZM14.1432 12.312C13.3825 12.7537 12.1473 12.7537 11.3784 12.312C10.6095 11.8703 10.6095 11.1505 11.3702 10.7088C12.131 10.267 13.3661 10.267 14.1351 10.7088C14.8958 11.1505 14.904 11.8703 14.1432 12.312ZM39.0511 17.2936L17.2516 4.7047C15.9919 3.97669 13.9469 3.97669 12.6954 4.7047L1.0063 11.494C-0.245231 12.222 -0.237051 13.4081 1.02266 14.1361L22.8221 26.725C24.0818 27.453 26.1268 27.453 27.3783 26.725L39.0592 19.9357C40.319 19.2077 40.3108 18.0216 39.0511 17.2936ZM27.6155 24.3283C27.4765 24.1974 27.3129 24.0747 27.1166 23.9602C25.8405 23.224 23.771 23.224 22.5031 23.9602C22.4049 24.0175 22.3231 24.0747 22.2332 24.1402L5.30893 14.3652C5.47253 14.2997 5.62795 14.2261 5.77518 14.1443C7.04307 13.4081 7.03489 12.2139 5.75882 11.4777C5.61977 11.3959 5.47253 11.3222 5.31711 11.265L12.2946 7.20775C12.4009 7.29773 12.5236 7.37953 12.6627 7.46133C13.9387 8.19752 16.0083 8.19752 17.2761 7.46133C17.4234 7.37953 17.5461 7.28955 17.6606 7.19139L34.6421 16.9909C34.4131 17.0727 34.2086 17.1627 34.0122 17.2772C32.7444 18.0134 32.7444 19.2159 34.0286 19.9521C34.2249 20.0666 34.4458 20.1566 34.6748 20.2384L27.6155 24.3283ZM0.450062 16.6556C1.0063 16.3693 1.86519 16.4102 2.39688 16.721L25.1861 29.8743L37.5051 22.7087C38.0368 22.3979 38.912 22.3979 39.4519 22.7087C39.9918 23.0195 39.9918 23.5267 39.4601 23.8375L26.364 31.4448C25.726 31.8211 24.679 31.8211 24.0327 31.4448L23.5747 31.1831L23.2557 30.9949L0.409162 17.8089C-0.147072 17.4899 -0.138892 16.9582 0.450062 16.6556ZM39.4764 27.952L26.3804 35.5593C25.7423 35.9356 24.6953 35.9356 24.0491 35.5593L23.5992 35.2976L23.272 35.1094L0.425522 21.9234C-0.130712 21.6044 -0.114352 21.0727 0.474602 20.77C1.02266 20.4838 1.88973 20.5247 2.42142 20.8355L25.2025 33.9888L37.5214 26.8314C38.0613 26.5205 38.9284 26.5205 39.4682 26.8314C40.0081 27.134 40.0163 27.6412 39.4764 27.952Z" fill="white"/>
</g>
<defs>
<clipPath id="clip0_2_1091">
<rect width="40" height="40" fill="white"/>
</clipPath>
</defs>
</svg>
