<svg width="30" height="30" viewBox="0 0 30 30" fill="none" xmlns="http://www.w3.org/2000/svg">
<path d="M17.6059 11.2686C16.8959 10.7156 15.9691 10.4111 14.9965 10.4111C12.9341 10.4111 11.3597 11.705 11.1678 13.5576C11.1461 13.7677 11.2 13.9565 11.3198 14.0893C11.4007 14.1791 11.5503 14.2861 11.8027 14.2861H18.2866C18.4263 14.2861 18.5558 14.2297 18.6515 14.1273C18.8478 13.9172 18.8415 13.5807 18.8348 13.4826C18.7769 12.6269 18.3404 11.8405 17.6059 11.2686Z" fill="white"/>
<path d="M2.50721 11.5424L5.06548 12.59L4.13641 13.605C4.0165 13.7368 3.9837 13.9034 4.04883 14.0508C4.11396 14.1982 4.25923 14.2862 4.43744 14.2862H5.63927C5.90331 14.2862 6.23857 14.1775 6.33663 13.6592L6.34191 13.6321C7.19137 9.5633 10.8293 6.61006 14.9921 6.61006C19.1567 6.61006 22.7949 9.56479 23.643 13.6357C23.761 14.2017 24.096 14.2863 24.2853 14.2863H24.4406C24.6078 14.2863 24.7686 14.2031 24.9187 14.0392L27.6752 10.604L27.6868 10.5885C27.7846 10.4512 27.801 10.2876 27.7307 10.1512C27.661 10.0158 27.5208 9.93508 27.356 9.93508C27.3505 9.93508 27.3449 9.93514 27.3393 9.93535L24.6045 9.93812L25.734 5.98399L25.7378 5.96918C25.7703 5.83249 25.7451 5.70264 25.6668 5.60355C25.5537 5.46038 25.3483 5.41797 25.1675 5.5067L22.5816 6.54899L22.1659 2.47258L22.1635 2.45438C22.13 2.24134 21.968 2.09248 21.7694 2.09248C21.6544 2.09248 21.5447 2.143 21.4587 2.23519L19.4515 4.20559L17.5291 0.596656L17.5107 0.566086C17.4259 0.440899 17.2982 0.369141 17.1603 0.369141C16.9905 0.369141 16.8408 0.479517 16.7762 0.651303L15.7171 3.23757L12.4541 0.650289C12.3488 0.565883 12.2468 0.548164 12.1797 0.548164C12.0735 0.548164 11.975 0.590366 11.9023 0.666994C11.8264 0.747003 11.7871 0.857582 11.7911 0.979524L11.7993 3.71559L7.8397 2.58458L7.82516 2.58072C7.63795 2.53622 7.45791 2.60649 7.36877 2.75386C7.29715 2.87222 7.29431 3.01688 7.36011 3.1531L8.4283 5.6793L4.32348 6.15002L4.30319 6.153C4.13749 6.18235 4.01055 6.28772 3.96361 6.4351C3.91667 6.58247 3.95922 6.74194 4.08163 6.86591L6.07077 8.81075L2.45284 10.7981L2.44039 10.8053C2.29126 10.8957 2.212 11.0438 2.2283 11.2016C2.24439 11.3561 2.34835 11.4828 2.50721 11.5424Z" fill="white"/>
<path d="M28.8943 15.7715H1.10572C0.692759 15.7715 0 15.9556 0 17.189C0 18.4224 0.692759 18.6066 1.10572 18.6066H2.29321C2.70997 21.5599 4.14513 24.2753 6.36996 26.2975C8.73514 28.4471 11.7992 29.6309 14.9978 29.6309C21.3873 29.6309 26.8144 24.9051 27.7023 18.6066H28.8943C29.3072 18.6066 30 18.4224 30 17.189C30 15.9556 29.3072 15.7715 28.8943 15.7715Z" fill="white"/>
</svg>
