<svg width="50" height="50" viewBox="0 0 50 50" fill="none" xmlns="http://www.w3.org/2000/svg">
<path d="M31.9449 29.428V6.94355C31.9449 3.11485 28.8292 0 24.9997 0C21.1708 0 18.0557 3.11485 18.0557 6.94355V29.4278C15.2111 31.5947 13.5358 34.9416 13.5358 38.5359C13.5358 44.8573 18.6783 50 24.9997 50C31.3215 50 36.4644 44.8573 36.4644 38.5359C36.4644 34.942 34.7891 31.5951 31.9449 29.428ZM24.9997 47.0023C20.3314 47.0023 16.5335 43.2043 16.5335 38.5359C16.5335 35.6792 17.97 33.0326 20.3762 31.4562C20.7989 31.1792 21.0537 30.7078 21.0537 30.2026V6.94355C21.0537 4.7678 22.8239 2.99773 24.9999 2.99773C27.1767 2.99773 28.9473 4.7678 28.9473 6.94355V30.2026C28.9473 30.708 29.2019 31.1792 29.6248 31.4562C32.0306 33.0328 33.4671 35.6794 33.4671 38.5359C33.4667 43.2043 29.6684 47.0023 24.9997 47.0023Z" fill="white"/>
<path d="M26.4989 33.7831V13.9745C26.4989 13.1467 25.828 12.4756 25.0001 12.4756C24.1721 12.4756 23.5012 13.1467 23.5012 13.9745V33.7831C21.4819 34.4192 20.0178 36.3056 20.0178 38.5361C20.0178 41.2874 22.2481 43.5185 25.0001 43.5185C27.7526 43.5185 29.9827 41.2874 29.9827 38.5361C29.9825 36.3054 28.5184 34.4188 26.4989 33.7831Z" fill="white"/>
</svg>
