<svg width="30" height="30" viewBox="0 0 30 30" fill="none" xmlns="http://www.w3.org/2000/svg">
<path d="M19.1669 17.6568V4.16613C19.1669 1.86891 17.2975 0 14.9998 0C12.7025 0 10.8334 1.86891 10.8334 4.16613V17.6567C9.12666 18.9568 8.12146 20.965 8.12146 23.1215C8.12146 26.9144 11.207 30 14.9998 30C18.7929 30 21.8787 26.9144 21.8787 23.1215C21.8787 20.9652 20.8735 18.9571 19.1669 17.6568ZM14.9998 28.2014C12.1989 28.2014 9.9201 25.9226 9.9201 23.1215C9.9201 21.4075 10.782 19.8196 12.2257 18.8737C12.4793 18.7075 12.6322 18.4247 12.6322 18.1215V4.16613C12.6322 2.86068 13.6944 1.79864 14.9999 1.79864C16.306 1.79864 17.3684 2.86068 17.3684 4.16613V18.1215C17.3684 18.4248 17.5212 18.7075 17.7749 18.8737C19.2183 19.8197 20.0803 21.4077 20.0803 23.1215C20.08 25.9226 17.801 28.2014 14.9998 28.2014Z" fill="#5FFF8B"/>
<path d="M15.8994 20.2698V8.38467C15.8994 7.88801 15.4969 7.48535 15.0001 7.48535C14.5033 7.48535 14.1008 7.88801 14.1008 8.38467V20.2698C12.8892 20.6515 12.0107 21.7833 12.0107 23.1216C12.0107 24.7724 13.3489 26.1111 15.0001 26.1111C16.6516 26.1111 17.9897 24.7724 17.9897 23.1216C17.9895 21.7832 17.1111 20.6513 15.8994 20.2698Z" fill="#5FFF8B"/>
</svg>
