<svg width="30" height="30" viewBox="0 0 30 30" fill="none" xmlns="http://www.w3.org/2000/svg">
<path d="M28.75 4.99998H26.25H22.225L21.8137 3.35496C21.3213 1.38 19.5537 0 17.5175 0H12.4825C10.4462 0 8.67873 1.38 8.18619 3.35502L7.77492 5.00004H3.75H1.24998C0.55875 4.99998 0 5.56002 0 6.25002C0 6.94002 0.55875 7.5 1.24998 7.5H2.56746L3.61998 26.4575C3.73125 28.4437 5.3775 30 7.36623 30H22.6337C24.6224 30 26.2687 28.4437 26.38 26.4575L27.4325 7.5H28.75C29.4412 7.5 29.9999 6.94002 29.9999 6.25002C29.9999 5.56002 29.4412 4.99998 28.75 4.99998ZM10.61 3.96123C10.8263 3.10125 11.595 2.49996 12.4825 2.49996H17.5175C18.405 2.49996 19.1737 3.10119 19.39 3.96123L19.6487 4.99998H10.3512L10.61 3.96123ZM11.25 23.75C11.25 24.44 10.6913 25 10 25C9.30879 25 8.75004 24.44 8.75004 23.75V11.25C8.75004 10.56 9.30879 10 10 10C10.6913 10 11.25 10.56 11.25 11.25V23.75ZM16.25 23.75C16.25 24.44 15.6912 25 15 25C14.3088 25 13.75 24.44 13.75 23.75V11.25C13.75 10.56 14.3088 10 15 10C15.6912 10 16.25 10.56 16.25 11.25V23.75ZM21.25 23.75C21.25 24.44 20.6913 25 20 25C19.3088 25 18.7501 24.44 18.7501 23.75V11.25C18.7501 10.56 19.3088 10 20 10C20.6913 10 21.25 10.56 21.25 11.25V23.75Z" fill="white"/>
</svg>
