<svg width="893" height="898" viewBox="0 0 893 898" fill="none" xmlns="http://www.w3.org/2000/svg">
<path fill-rule="evenodd" clip-rule="evenodd" d="M255.065 119.985C215.3 119.985 183.065 152.221 183.065 191.985V385.722C183.065 425.486 215.3 457.722 255.065 457.722H633.47C673.235 457.722 705.47 425.486 705.47 385.722V191.985C705.47 152.221 673.235 119.985 633.47 119.985H255.065ZM350.502 422.171C425.714 422.171 486.685 361.488 486.685 286.632C486.685 211.776 425.714 151.093 350.502 151.093C275.291 151.093 214.32 211.776 214.32 286.632C214.32 361.488 275.291 422.171 350.502 422.171Z" fill="white"/>
<path fill-rule="evenodd" clip-rule="evenodd" d="M705.47 538.61C705.47 498.845 673.235 466.61 633.47 466.61H255.065C215.3 466.61 183.065 498.845 183.065 538.61V732.346C183.065 772.111 215.3 804.346 255.065 804.346H633.47C673.235 804.346 705.47 772.111 705.47 732.346V538.61ZM350.502 768.795C425.714 768.795 486.685 708.112 486.685 633.256C486.685 558.4 425.714 497.717 350.502 497.717C275.291 497.717 214.32 558.4 214.32 633.256C214.32 708.112 275.291 768.795 350.502 768.795Z" fill="white"/>
</svg>
