<svg width="40" height="40" viewBox="0 0 40 40" fill="none" xmlns="http://www.w3.org/2000/svg">
<path d="M5.3381 15.9511H25.4621C28.9779 15.9511 31.8312 13.2683 31.8312 9.97553C31.8312 6.68276 28.9779 4 25.4621 4C21.9463 4 19.093 6.68276 19.093 9.97553C19.093 10.7167 19.6899 11.3136 20.4311 11.3136C21.1723 11.3136 21.7692 10.7167 21.7692 9.97553C21.7692 8.1586 23.4287 6.6762 25.4621 6.6762C27.4955 6.6762 29.155 8.15204 29.155 9.97553C29.155 11.7925 27.4955 13.2749 25.4621 13.2749H5.3381C4.5969 13.2749 4 13.8718 4 14.613C4 15.3542 4.5969 15.9511 5.3381 15.9511Z" fill="white"/>
<path d="M25.4621 24.1895H5.3381C4.5969 24.1895 4 24.7864 4 25.5276C4 26.2688 4.5969 26.8657 5.3381 26.8657H25.4621C27.4955 26.8657 29.155 28.3481 29.155 30.165C29.155 31.9819 27.4955 33.4643 25.4621 33.4643C24.7209 33.4643 24.124 34.0612 24.124 34.8024C24.124 35.5436 24.7209 36.1405 25.4621 36.1405C28.9779 36.1405 31.8312 33.4578 31.8312 30.165C31.8377 26.8722 28.9779 24.1895 25.4621 24.1895Z" fill="white"/>
<path d="M34.8025 14.9082C34.0613 14.9082 33.4644 15.5051 33.4644 16.2463C33.4644 17.7418 31.9164 18.9553 30.0142 18.9553H5.3381C4.5969 18.9553 4 19.5522 4 20.2934C4 21.0346 4.5969 21.6315 5.3381 21.6315H30.0142C33.3923 21.6315 36.1406 19.2177 36.1406 16.2463C36.1406 15.5051 35.5437 14.9082 34.8025 14.9082Z" fill="white"/>
</svg>
