<svg width="950" height="950" viewBox="0 0 950 950" fill="none" xmlns="http://www.w3.org/2000/svg">
<circle cx="474.904" cy="474.904" r="31.9037" fill="white"/>
<path fill-rule="evenodd" clip-rule="evenodd" d="M504.922 503.951C506.792 502.055 508.454 499.892 509.847 497.478C512.385 493.083 513.758 488.335 514.062 483.592L605.962 530.582L844.162 685.557C844.039 689.379 843.108 690.811 840.244 692.343L590.85 556.757L504.922 503.951Z" fill="white"/>
<path fill-rule="evenodd" clip-rule="evenodd" d="M433.691 487.001C434.391 489.917 435.518 492.783 437.094 495.512C438.891 498.625 441.134 501.321 443.695 503.565L327.012 579.104L73.699 707.904C70.451 705.887 69.6758 704.364 69.781 701.118L311.899 552.929L433.691 487.001Z" fill="white"/>
<path fill-rule="evenodd" clip-rule="evenodd" d="M485.463 433.533C482.588 432.682 479.542 432.225 476.39 432.225C472.796 432.225 469.34 432.819 466.116 433.915L459.039 295.095L474.151 11.3195C477.523 9.51544 479.229 9.60532 481.987 11.3195L489.264 295.095L485.463 433.533Z" fill="white"/>
</svg>
