<svg width="30" height="30" viewBox="0 0 30 30" fill="none" xmlns="http://www.w3.org/2000/svg">
<path d="M25.0898 11.8711V6.46875H16.5586L6.10547 10.6172V14.7188L0.597656 17.3789V23.8945H21.9844L29.4141 17.6602V11.8945H25.0898V11.8711ZM15.5977 11.6367V16.207H14.6133C14.6133 16.0781 14.6016 15.9375 14.5898 15.8086C14.4727 14.2266 13.8516 12.8203 12.832 11.6367H15.5977ZM7.06641 11.6367H11.5078C12.7734 12.7383 13.4883 14.2031 13.6172 15.8906C13.6289 15.9961 13.6289 16.1016 13.6289 16.207H11.6367C11.6367 16.1484 11.6367 16.1016 11.6367 16.043C11.543 14.8828 11.0156 13.8164 10.125 13.0664C9.25781 12.3281 8.20312 11.9531 7.08984 12.0117V11.6484H7.06641V11.6367ZM7.06641 12.9492C7.96875 12.8906 8.80078 13.1953 9.48047 13.7813C10.1719 14.3672 10.5937 15.1992 10.6523 16.1133C10.6523 16.1367 10.6523 16.1719 10.6523 16.1953H9.5625C9.51562 15.5859 9.21094 15.0352 8.7539 14.6367C8.28515 14.2383 7.69922 14.0508 7.08984 14.0977C7.06641 14.0977 7.07812 14.0977 7.06641 14.0977V12.9492ZM7.06641 15.0586C7.11328 15.0469 7.125 15.0469 7.16015 15.0469C7.52344 15.0234 7.85156 15.1289 8.13281 15.3633C8.39062 15.5742 8.54297 15.8672 8.58984 16.207H7.06641V15.0586ZM1.54687 22.9219V21.832C1.61719 21.8203 1.6875 21.7969 1.75781 21.7969C2.10937 21.7734 2.44922 21.8789 2.73047 22.1133C2.98828 22.3242 3.15234 22.5938 3.1875 22.9336H1.54687V22.9219ZM4.18359 22.9219C4.13672 22.3125 3.82031 21.7852 3.35156 21.3867C2.88281 20.9883 2.29687 20.8008 1.6875 20.8477C1.64062 20.8477 1.59375 20.8594 1.54687 20.8711V19.7578C1.55859 19.7578 1.58203 19.7461 1.60547 19.7461C3.48047 19.6055 5.12109 21.0117 5.27344 22.8867C5.27344 22.9102 5.27344 22.9219 5.27344 22.9453C5.27344 22.9219 4.18359 22.9219 4.18359 22.9219ZM6.23437 22.9219C6.23437 22.8633 6.23437 22.8398 6.22266 22.793C6.03516 20.4023 3.9375 18.5859 1.54687 18.7617V18.3633H6.05859C7.32422 19.4648 8.08594 20.9531 8.22656 22.6406C8.23828 22.7461 8.23828 22.8281 8.23828 22.9336H6.23437V22.9219ZM9.1875 22.5469C9.07031 20.9648 8.44922 19.5234 7.42969 18.3516H10.0781V22.9219H9.21094C9.19922 22.793 9.19922 22.6875 9.1875 22.5469ZM12.4805 22.9219V21.8203C12.5391 21.8086 12.5625 21.7969 12.6328 21.7969C12.9844 21.7734 13.3242 21.8789 13.6055 22.1133C13.8633 22.3242 14.0039 22.5938 14.0508 22.9336L12.4805 22.9219ZM15 22.9219C14.9531 22.3125 14.6836 21.7852 14.2148 21.3867C13.7461 20.9883 13.1602 20.8008 12.5508 20.8477C12.5156 20.8477 12.5156 20.8477 12.4687 20.8477V19.6875C14.3437 19.5469 15.9727 21 16.125 22.875C16.125 22.8984 16.125 22.9102 16.125 22.9336C16.1367 22.9219 15 22.9219 15 22.9219ZM17.0977 22.9219C17.0977 22.8633 17.0977 22.8398 17.0859 22.793C16.9102 20.4023 14.8477 18.5625 12.4687 18.7266V18.3633H16.9102C18.1758 19.4648 18.9492 20.9531 19.0898 22.6406C19.1016 22.7461 19.0781 22.8281 19.0781 22.9336H17.0977V22.9219ZM21 22.9219H20.0391C20.0391 22.793 20.0508 22.6758 20.0391 22.5469C19.9219 20.9648 19.2539 19.5234 18.2344 18.3516H21V22.9219Z" fill="white"/>
</svg>
